<svg width="92" height="84" viewBox="0 0 92 84" fill="none" xmlns="http://www.w3.org/2000/svg">
<path d="M12 12V0H20V12H32V20H20V32H12V20H0V12H12ZM24 36V24H36V12H64L71.32 20H84C88.4 20 92 23.6 92 28V76C92 80.4 88.4 84 84 84H20C15.6 84 12 80.4 12 76V36H24ZM52 72C63.04 72 72 63.04 72 52C72 40.96 63.04 32 52 32C40.96 32 32 40.96 32 52C32 63.04 40.96 72 52 72ZM39.2 52C39.2 59.08 44.92 64.8 52 64.8C59.08 64.8 64.8 59.08 64.8 52C64.8 44.92 59.08 39.2 52 39.2C44.92 39.2 39.2 44.92 39.2 52Z" fill="#E28413"/>
</svg>
