<svg width="513" height="140" viewBox="0 0 513 140" fill="none" xmlns="http://www.w3.org/2000/svg">
<path d="M0.6 -9.53674e-06H53.8C62.2 2.79999 69.3333 7.99999 75.2 15.6C81.2 23.0667 84.2 32.2667 84.2 43.2C84.2 61.0667 77.1333 74.2 63 82.6L83.2 140H55.2L38.2 89H27.6V140H0.6V-9.53674e-06ZM27.6 24V66.6H44.8C47.0667 66.0667 49.5333 63.8 52.2 59.8C55 55.6667 56.4 50.8667 56.4 45.4C56.4 39.9333 55.2 35.1333 52.8 31C50.5333 26.8667 48.2667 24.5333 46 24H27.6Z" fill="#E28413"/>
<path d="M143.847 58.8H128.847C126.847 61.2 125.18 64.5333 123.847 68.8C122.647 73.0667 122.047 77.2 122.047 81.2H150.647C150.914 77.2 150.38 73.0667 149.047 68.8C147.714 64.4 145.98 61.0667 143.847 58.8ZM171.047 119V140H120.247C110.914 133.733 104.314 126 100.447 116.8C96.7135 107.467 94.8469 98.0667 94.8469 88.6C94.8469 66.7333 103.114 49.8 119.647 37.8H152.047C160.98 44.3333 167.047 51.2667 170.247 58.6C173.447 65.9333 175.047 73.3333 175.047 80.8C175.047 88.2667 174.447 94.6667 173.247 100H123.447C123.847 103.067 124.98 106.6 126.847 110.6C128.847 114.467 130.98 117.267 133.247 119H171.047ZM213.267 88C213.267 93.6 214.134 99.3333 215.867 105.2C217.601 110.933 220.001 115.533 223.067 119H253.067V140H209.267C193.534 127.467 185.667 110.133 185.667 88C185.667 65.8667 194.067 49.1333 210.867 37.8H253.067V58.8H223.067C216.534 65.6 213.267 75.3333 213.267 88ZM287.291 88C287.291 93.6 288.157 99.3333 289.891 105.2C291.624 110.933 294.024 115.533 297.091 119H327.091V140H283.291C267.557 127.467 259.691 110.133 259.691 88C259.691 65.8667 268.091 49.1333 284.891 37.8H327.091V58.8H297.091C290.557 65.6 287.291 75.3333 287.291 88ZM397.314 140H353.714C340.381 127.6 333.714 110.667 333.714 89.2C333.714 78.4 335.181 69 338.114 61C341.181 53 345.981 45.2667 352.514 37.8H399.314C406.247 45.8 410.981 53.6 413.514 61.2C416.047 68.6667 417.314 78 417.314 89.2C417.314 110.667 410.647 127.6 397.314 140ZM367.914 119H383.114C387.914 109.667 390.314 99.0667 390.314 87.2C390.314 75.3333 387.847 65.8667 382.914 58.8H367.914C363.114 65.6 360.714 75.2667 360.714 87.8C360.714 100.2 363.114 110.6 367.914 119ZM476.031 37.8H497.231C503.098 45.2667 507.098 52.7333 509.231 60.2C511.365 67.6667 512.431 77 512.431 88.2V140H485.831V86.2C485.831 73.5333 484.098 64.4 480.631 58.8H458.231V140H431.631V37.8H452.431L456.031 45C458.965 42.3333 461.698 40.4667 464.231 39.4C466.898 38.3333 470.831 37.8 476.031 37.8Z" fill="#765FB0"/>
</svg>
