<svg width="131" height="21" viewBox="0 0 131 21" fill="none" xmlns="http://www.w3.org/2000/svg">
<path d="M0.152 17V0.199999H8.768V3.08H3.44V7.088H8.192V9.872H3.44V14.216H8.864V17H0.152ZM15.9303 4.736H18.4743C19.1783 5.632 19.6583 6.528 19.9143 7.424C20.1703 8.32 20.2983 9.44 20.2983 10.784V17H17.1063V10.544C17.1063 9.024 16.8983 7.928 16.4823 7.256H13.7943V17H10.6023V4.736H13.0983L13.5303 5.6C13.8823 5.28 14.2103 5.056 14.5143 4.928C14.8343 4.8 15.3063 4.736 15.9303 4.736ZM29.1382 17H24.6982C23.9302 16.376 23.3222 15.552 22.8742 14.528C22.4262 13.504 22.2022 12.368 22.2022 11.12V4.736H25.3942V11.024C25.3942 12.432 25.6582 13.584 26.1862 14.48H27.6502C28.1782 13.536 28.4422 12.392 28.4422 11.048V4.736H31.6342V11C31.6342 12.264 31.4102 13.424 30.9622 14.48C30.5142 15.536 29.9062 16.376 29.1382 17ZM33.6179 17V4.736H36.7859V17H33.6179ZM33.6179 0.199999H36.7859V3.44H33.6179V0.199999ZM44.6285 11.456H42.0605C41.7245 11.872 41.5565 12.392 41.5565 13.016C41.5565 13.64 41.7325 14.128 42.0845 14.48H44.6285V11.456ZM39.4685 4.736H45.4205C46.3805 5.312 47.0125 5.976 47.3165 6.728C47.6205 7.464 47.7725 8.472 47.7725 9.752V13.352C47.7725 14.68 47.8045 15.896 47.8685 17H45.1325L44.7005 16.136C44.0765 16.712 43.1965 17 42.0605 17H40.5485C39.1885 16.104 38.5085 14.816 38.5085 13.136C38.5085 11.44 39.2045 10.104 40.5965 9.128H42.8525C43.4765 9.128 44.0605 9.32 44.6045 9.704V8.504C44.6045 7.88 44.3325 7.464 43.7885 7.256H39.4685V4.736ZM49.8607 17V4.736H52.1407L52.7407 6.032C53.3807 5.168 54.1887 4.736 55.1647 4.736H56.1007V7.952H53.0527V17H49.8607ZM61.3211 17V4.736H64.4891V17H61.3211ZM61.3211 0.199999H64.4891V3.44H61.3211V0.199999ZM71.8756 4.736H73.5796L74.1796 5.576C74.5156 5.272 74.8356 5.056 75.1396 4.928C75.4596 4.8 75.9316 4.736 76.5556 4.736H79.2196C79.9236 5.632 80.4036 6.528 80.6596 7.424C80.9156 8.32 81.0436 9.44 81.0436 10.784V17H77.8516V10.544C77.8516 9.072 77.6276 7.976 77.1796 7.256H74.8756C75.2276 7.944 75.4036 8.88 75.4036 10.064V17H72.2116V10.544C72.2116 9.024 72.0036 7.928 71.5876 7.256H69.7396V17H66.5476V4.736H69.0436L69.4756 5.6C69.8276 5.28 70.1556 5.056 70.4596 4.928C70.7796 4.8 71.2516 4.736 71.8756 4.736ZM88.7848 11.456H86.2168C85.8808 11.872 85.7128 12.392 85.7128 13.016C85.7128 13.64 85.8888 14.128 86.2408 14.48H88.7848V11.456ZM83.6248 4.736H89.5768C90.5368 5.312 91.1688 5.976 91.4728 6.728C91.7768 7.464 91.9288 8.472 91.9288 9.752V13.352C91.9288 14.68 91.9608 15.896 92.0248 17H89.2888L88.8568 16.136C88.2328 16.712 87.3528 17 86.2168 17H84.7048C83.3448 16.104 82.6648 14.816 82.6648 13.136C82.6648 11.44 83.3608 10.104 84.7528 9.128H87.0088C87.6328 9.128 88.2168 9.32 88.7608 9.704V8.504C88.7608 7.88 88.4888 7.464 87.9448 7.256H83.6248V4.736ZM103.281 4.736V15.728C103.281 16.944 103.121 17.92 102.801 18.656C102.497 19.392 101.881 20.04 100.953 20.6H95.4809V18.104H99.5849C99.9849 17.864 100.185 17.48 100.185 16.952V15.536C99.5929 16.032 98.6489 16.28 97.3529 16.28H95.6009C94.3049 14.728 93.6569 12.928 93.6569 10.88C93.6569 9.408 93.8649 8.208 94.2809 7.28C94.6969 6.336 95.3049 5.488 96.1049 4.736H97.8809C98.9209 4.736 99.7449 5.072 100.353 5.744L100.785 4.736H103.281ZM100.089 7.256H97.7609C97.1849 8.248 96.8969 9.392 96.8969 10.688C96.8969 11.968 97.1449 13.024 97.6409 13.856H100.089V7.256ZM110.787 7.256H108.987C108.747 7.544 108.547 7.944 108.387 8.456C108.243 8.968 108.171 9.464 108.171 9.944H111.603C111.635 9.464 111.571 8.968 111.411 8.456C111.251 7.928 111.043 7.528 110.787 7.256ZM114.051 14.48V17H107.955C106.835 16.248 106.043 15.32 105.579 14.216C105.131 13.096 104.907 11.968 104.907 10.832C104.907 8.208 105.899 6.176 107.883 4.736H111.771C112.843 5.52 113.571 6.352 113.955 7.232C114.339 8.112 114.531 9 114.531 9.896C114.531 10.792 114.459 11.56 114.315 12.2H108.339C108.387 12.568 108.523 12.992 108.747 13.472C108.987 13.936 109.243 14.272 109.515 14.48H114.051ZM121.469 4.736H123.173L123.773 5.576C124.109 5.272 124.429 5.056 124.733 4.928C125.053 4.8 125.525 4.736 126.149 4.736H128.813C129.517 5.632 129.997 6.528 130.253 7.424C130.509 8.32 130.637 9.44 130.637 10.784V17H127.445V10.544C127.445 9.072 127.221 7.976 126.773 7.256H124.469C124.821 7.944 124.997 8.88 124.997 10.064V17H121.805V10.544C121.805 9.024 121.597 7.928 121.181 7.256H119.333V17H116.141V4.736H118.637L119.069 5.6C119.421 5.28 119.749 5.056 120.053 4.928C120.373 4.8 120.845 4.736 121.469 4.736Z" fill="#E28413"/>
</svg>
